<svg width="1920" height="1371" viewBox="0 0 1920 1371" fill="none" xmlns="http://www.w3.org/2000/svg">
<path d="M411.243 821.667C335.506 821.667 274.162 883.014 274.162 958.756C274.162 1034.5 335.506 1095.84 411.243 1095.84C486.981 1095.84 548.324 1034.5 548.324 958.756C548.324 883.014 486.981 821.667 411.243 821.667ZM137.081 547.49C61.3438 547.49 0 608.837 0 684.578C0 760.32 61.3438 821.667 137.081 821.667C212.818 821.667 274.162 760.32 274.162 684.578C274.162 608.837 212.818 547.49 137.081 547.49ZM137.081 1095.84C61.3438 1095.84 0 1157.19 0 1232.93C0 1308.67 61.3438 1370.02 137.081 1370.02C212.818 1370.02 274.162 1308.67 274.162 1232.93C274.162 1157.19 212.818 1095.84 137.081 1095.84ZM959.568 547.49C1035.3 547.49 1096.65 486.143 1096.65 410.401C1096.65 334.66 1035.3 273.312 959.568 273.312C883.83 273.312 822.486 334.66 822.486 410.401C822.486 486.143 883.83 547.49 959.568 547.49ZM685.405 1095.84C609.668 1095.84 548.324 1157.19 548.324 1232.93C548.324 1308.67 609.668 1370.02 685.405 1370.02C761.143 1370.02 822.486 1308.67 822.486 1232.93C822.486 1157.19 761.143 1095.84 685.405 1095.84ZM959.568 821.667C883.83 821.667 822.486 883.014 822.486 958.756C822.486 1034.5 883.83 1095.84 959.568 1095.84C1035.3 1095.84 1096.65 1034.5 1096.65 958.756C1096.65 883.014 1035.3 821.667 959.568 821.667ZM685.405 547.49C609.668 547.49 548.324 608.837 548.324 684.578C548.324 760.32 609.668 821.667 685.405 821.667C761.143 821.667 822.486 760.32 822.486 684.578C822.486 608.837 761.143 547.49 685.405 547.49ZM411.243 273.312C335.506 273.312 274.162 334.66 274.162 410.401C274.162 486.143 335.506 547.49 411.243 547.49C486.981 547.49 548.324 486.143 548.324 410.401C548.324 334.66 486.981 273.312 411.243 273.312Z" fill="#2D3047"/>
<path d="M1234.59 548.355C1158.86 548.355 1097.51 609.702 1097.51 685.443C1097.51 761.185 1158.86 822.532 1234.59 822.532C1310.33 822.532 1371.68 761.185 1371.68 685.443C1371.68 609.702 1310.33 548.355 1234.59 548.355ZM960.432 274.177C884.695 274.177 823.351 335.525 823.351 411.266C823.351 487.008 884.695 548.355 960.432 548.355C1036.17 548.355 1097.51 487.008 1097.51 411.266C1097.51 335.525 1036.17 274.177 960.432 274.177ZM960.432 822.532C884.695 822.532 823.351 883.879 823.351 959.621C823.351 1035.36 884.695 1096.71 960.432 1096.71C1036.17 1096.71 1097.51 1035.36 1097.51 959.621C1097.51 883.879 1036.17 822.532 960.432 822.532ZM1782.92 274.177C1858.66 274.177 1920 212.83 1920 137.089C1920 61.3472 1858.66 0 1782.92 0C1707.18 0 1645.84 61.3472 1645.84 137.089C1645.84 212.83 1707.18 274.177 1782.92 274.177ZM1508.76 822.532C1433.02 822.532 1371.68 883.879 1371.68 959.621C1371.68 1035.36 1433.02 1096.71 1508.76 1096.71C1584.49 1096.71 1645.84 1035.36 1645.84 959.621C1645.84 883.879 1584.49 822.532 1508.76 822.532ZM1782.92 548.355C1707.18 548.355 1645.84 609.702 1645.84 685.443C1645.84 761.185 1707.18 822.532 1782.92 822.532C1858.66 822.532 1920 761.185 1920 685.443C1920 609.702 1858.66 548.355 1782.92 548.355ZM1508.76 274.177C1433.02 274.177 1371.68 335.525 1371.68 411.266C1371.68 487.008 1433.02 548.355 1508.76 548.355C1584.49 548.355 1645.84 487.008 1645.84 411.266C1645.84 335.525 1584.49 274.177 1508.76 274.177ZM1234.59 0C1158.86 0 1097.51 61.3472 1097.51 137.089C1097.51 212.83 1158.86 274.177 1234.59 274.177C1310.33 274.177 1371.68 212.83 1371.68 137.089C1371.68 61.3472 1310.33 0 1234.59 0Z" fill="#2D3047"/>
</svg>
