<svg width="1000" height="1000" viewBox="0 0 1000 1000" fill="none" xmlns="http://www.w3.org/2000/svg">
<circle cx="500" cy="500" r="500" fill="#EFEFF0"/>
<path d="M324.512 543.748C300.292 543.748 280.675 563.365 280.675 587.585C280.675 611.805 300.292 631.423 324.512 631.423C348.732 631.423 368.35 611.805 368.35 587.585C368.35 563.365 348.732 543.748 324.512 543.748ZM236.837 456.073C212.617 456.073 193 475.69 193 499.91C193 524.13 212.617 543.748 236.837 543.748C261.058 543.748 280.675 524.13 280.675 499.91C280.675 475.69 261.058 456.073 236.837 456.073ZM236.837 631.423C212.617 631.423 193 651.04 193 675.26C193 699.48 212.617 719.097 236.837 719.097C261.058 719.097 280.675 699.48 280.675 675.26C280.675 651.04 261.058 631.423 236.837 631.423ZM499.862 456.073C524.082 456.073 543.699 436.456 543.699 412.236C543.699 388.015 524.082 368.398 499.862 368.398C475.642 368.398 456.024 388.015 456.024 412.236C456.024 436.456 475.642 456.073 499.862 456.073ZM412.187 631.423C387.967 631.423 368.35 651.04 368.35 675.26C368.35 699.48 387.967 719.097 412.187 719.097C436.407 719.097 456.024 699.48 456.024 675.26C456.024 651.04 436.407 631.423 412.187 631.423ZM499.862 543.748C475.642 543.748 456.024 563.365 456.024 587.585C456.024 611.805 475.642 631.423 499.862 631.423C524.082 631.423 543.699 611.805 543.699 587.585C543.699 563.365 524.082 543.748 499.862 543.748ZM412.187 456.073C387.967 456.073 368.35 475.69 368.35 499.91C368.35 524.13 387.967 543.748 412.187 543.748C436.407 543.748 456.024 524.13 456.024 499.91C456.024 475.69 436.407 456.073 412.187 456.073ZM324.512 368.398C300.292 368.398 280.675 388.015 280.675 412.236C280.675 436.456 300.292 456.073 324.512 456.073C348.732 456.073 368.35 436.456 368.35 412.236C368.35 388.015 348.732 368.398 324.512 368.398Z" fill="#2D3047"/>
<path d="M587.813 456.35C563.593 456.35 543.976 475.967 543.976 500.187C543.976 524.407 563.593 544.024 587.813 544.024C612.033 544.024 631.65 524.407 631.65 500.187C631.65 475.967 612.033 456.35 587.813 456.35ZM500.138 368.675C475.918 368.675 456.301 388.292 456.301 412.512C456.301 436.732 475.918 456.35 500.138 456.35C524.358 456.35 543.976 436.732 543.976 412.512C543.976 388.292 524.358 368.675 500.138 368.675ZM500.138 544.024C475.918 544.024 456.301 563.642 456.301 587.862C456.301 612.082 475.918 631.699 500.138 631.699C524.358 631.699 543.976 612.082 543.976 587.862C543.976 563.642 524.358 544.024 500.138 544.024ZM763.163 368.675C787.383 368.675 807 349.058 807 324.837C807 300.617 787.383 281 763.163 281C738.942 281 719.325 300.617 719.325 324.837C719.325 349.058 738.942 368.675 763.163 368.675ZM675.488 544.024C651.268 544.024 631.65 563.642 631.65 587.862C631.65 612.082 651.268 631.699 675.488 631.699C699.708 631.699 719.325 612.082 719.325 587.862C719.325 563.642 699.708 544.024 675.488 544.024ZM763.163 456.35C738.942 456.35 719.325 475.967 719.325 500.187C719.325 524.407 738.942 544.024 763.163 544.024C787.383 544.024 807 524.407 807 500.187C807 475.967 787.383 456.35 763.163 456.35ZM675.488 368.675C651.268 368.675 631.65 388.292 631.65 412.512C631.65 436.732 651.268 456.35 675.488 456.35C699.708 456.35 719.325 436.732 719.325 412.512C719.325 388.292 699.708 368.675 675.488 368.675ZM587.813 281C563.593 281 543.976 300.617 543.976 324.837C543.976 349.058 563.593 368.675 587.813 368.675C612.033 368.675 631.65 349.058 631.65 324.837C631.65 300.617 612.033 281 587.813 281Z" fill="#2D3047"/>
</svg>
